<svg width="89" height="27" viewBox="0 0 89 27" fill="none" xmlns="http://www.w3.org/2000/svg">
<g clip-path="url(#clip0_61_2)">
<path d="M6.32 22.14C5.29333 22.14 4.37333 21.9733 3.56 21.64C2.74667 21.3067 2.09333 20.8133 1.6 20.16C1.12 19.5067 0.866667 18.72 0.84 17.8H4.48C4.53333 18.32 4.71333 18.72 5.02 19C5.32667 19.2667 5.72667 19.4 6.22 19.4C6.72667 19.4 7.12667 19.2867 7.42 19.06C7.71333 18.82 7.86 18.4933 7.86 18.08C7.86 17.7333 7.74 17.4467 7.5 17.22C7.27333 16.9933 6.98667 16.8067 6.64 16.66C6.30667 16.5133 5.82667 16.3467 5.2 16.16C4.29333 15.88 3.55333 15.6 2.98 15.32C2.40667 15.04 1.91333 14.6267 1.5 14.08C1.08667 13.5333 0.88 12.82 0.88 11.94C0.88 10.6333 1.35333 9.61333 2.3 8.88C3.24667 8.13333 4.48 7.76 6 7.76C7.54667 7.76 8.79333 8.13333 9.74 8.88C10.6867 9.61333 11.1933 10.64 11.26 11.96H7.56C7.53333 11.5067 7.36667 11.1533 7.06 10.9C6.75333 10.6333 6.36 10.5 5.88 10.5C5.46667 10.5 5.13333 10.6133 4.88 10.84C4.62667 11.0533 4.5 11.3667 4.5 11.78C4.5 12.2333 4.71333 12.5867 5.14 12.84C5.56667 13.0933 6.23333 13.3667 7.14 13.66C8.04667 13.9667 8.78 14.26 9.34 14.54C9.91333 14.82 10.4067 15.2267 10.82 15.76C11.2333 16.2933 11.44 16.98 11.44 17.82C11.44 18.62 11.2333 19.3467 10.82 20C10.42 20.6533 9.83333 21.1733 9.06 21.56C8.28667 21.9467 7.37333 22.14 6.32 22.14ZM20.4047 10.72C21.6847 10.72 22.7114 11.1467 23.4847 12C24.258 12.84 24.6447 14 24.6447 15.48V22H21.2447V15.94C21.2447 15.1933 21.0514 14.6133 20.6647 14.2C20.278 13.7867 19.758 13.58 19.1047 13.58C18.4514 13.58 17.9314 13.7867 17.5447 14.2C17.158 14.6133 16.9647 15.1933 16.9647 15.94V22H13.5447V7.2H16.9647V12.34C17.3114 11.8467 17.7847 11.4533 18.3847 11.16C18.9847 10.8667 19.658 10.72 20.4047 10.72ZM32.1013 22.16C31.0079 22.16 30.0213 21.9267 29.1413 21.46C28.2746 20.9933 27.5879 20.3267 27.0813 19.46C26.5879 18.5933 26.3413 17.58 26.3413 16.42C26.3413 15.2733 26.5946 14.2667 27.1012 13.4C27.6079 12.52 28.3013 11.8467 29.1813 11.38C30.0613 10.9133 31.0479 10.68 32.1413 10.68C33.2346 10.68 34.2213 10.9133 35.1013 11.38C35.9813 11.8467 36.6746 12.52 37.1813 13.4C37.6879 14.2667 37.9413 15.2733 37.9413 16.42C37.9413 17.5667 37.6813 18.58 37.1613 19.46C36.6546 20.3267 35.9546 20.9933 35.0613 21.46C34.1813 21.9267 33.1946 22.16 32.1013 22.16ZM32.1013 19.2C32.7546 19.2 33.3079 18.96 33.7613 18.48C34.2279 18 34.4613 17.3133 34.4613 16.42C34.4613 15.5267 34.2346 14.84 33.7813 14.36C33.3413 13.88 32.7946 13.64 32.1413 13.64C31.4746 13.64 30.9213 13.88 30.4813 14.36C30.0413 14.8267 29.8213 15.5133 29.8213 16.42C29.8213 17.3133 30.0346 18 30.4613 18.48C30.9013 18.96 31.4479 19.2 32.1013 19.2ZM43.1756 12.42C43.509 11.9 43.969 11.48 44.5556 11.16C45.1423 10.84 45.829 10.68 46.6156 10.68C47.5356 10.68 48.369 10.9133 49.1156 11.38C49.8623 11.8467 50.449 12.5133 50.8756 13.38C51.3156 14.2467 51.5356 15.2533 51.5356 16.4C51.5356 17.5467 51.3156 18.56 50.8756 19.44C50.449 20.3067 49.8623 20.98 49.1156 21.46C48.369 21.9267 47.5356 22.16 46.6156 22.16C45.8423 22.16 45.1556 22 44.5556 21.68C43.969 21.36 43.509 20.9467 43.1756 20.44V27.32H39.7556V10.84H43.1756V12.42ZM48.0556 16.4C48.0556 15.5467 47.8156 14.88 47.3356 14.4C46.869 13.9067 46.289 13.66 45.5956 13.66C44.9156 13.66 44.3356 13.9067 43.8556 14.4C43.389 14.8933 43.1556 15.5667 43.1556 16.42C43.1556 17.2733 43.389 17.9467 43.8556 18.44C44.3356 18.9333 44.9156 19.18 45.5956 19.18C46.2756 19.18 46.8556 18.9333 47.3356 18.44C47.8156 17.9333 48.0556 17.2533 48.0556 16.4ZM56.7498 12.42C57.0832 11.9 57.5432 11.48 58.1298 11.16C58.7165 10.84 59.4032 10.68 60.1898 10.68C61.1098 10.68 61.9432 10.9133 62.6898 11.38C63.4365 11.8467 64.0232 12.5133 64.4498 13.38C64.8898 14.2467 65.1098 15.2533 65.1098 16.4C65.1098 17.5467 64.8898 18.56 64.4498 19.44C64.0232 20.3067 63.4365 20.98 62.6898 21.46C61.9432 21.9267 61.1098 22.16 60.1898 22.16C59.4165 22.16 58.7298 22 58.1298 21.68C57.5432 21.36 57.0832 20.9467 56.7498 20.44V27.32H53.3298V10.84H56.7498V12.42ZM61.6298 16.4C61.6298 15.5467 61.3898 14.88 60.9098 14.4C60.4432 13.9067 59.8632 13.66 59.1698 13.66C58.4898 13.66 57.9098 13.9067 57.4298 14.4C56.9632 14.8933 56.7298 15.5667 56.7298 16.42C56.7298 17.2733 56.9632 17.9467 57.4298 18.44C57.9098 18.9333 58.4898 19.18 59.1698 19.18C59.8498 19.18 60.4298 18.9333 60.9098 18.44C61.3898 17.9333 61.6298 17.2533 61.6298 16.4ZM68.6241 9.68C68.0241 9.68 67.5307 9.50667 67.1441 9.16C66.7707 8.8 66.5841 8.36 66.5841 7.84C66.5841 7.30667 66.7707 6.86667 67.1441 6.52C67.5307 6.16 68.0241 5.98 68.6241 5.98C69.2107 5.98 69.6907 6.16 70.0641 6.52C70.4507 6.86667 70.6441 7.30667 70.6441 7.84C70.6441 8.36 70.4507 8.8 70.0641 9.16C69.6907 9.50667 69.2107 9.68 68.6241 9.68ZM70.3241 10.84V22H66.9041V10.84H70.3241ZM79.4025 22L77.2625 18.9L75.4625 22H71.7625L75.4425 16.3L71.6625 10.84H75.5025L77.6425 13.92L79.4425 10.84H83.1425L79.4025 16.46L83.2425 22H79.4025Z" fill="#2563EB"/>
<path d="M86.1603 22.16C85.5603 22.16 85.067 21.9867 84.6803 21.64C84.307 21.28 84.1203 20.84 84.1203 20.32C84.1203 19.7867 84.307 19.34 84.6803 18.98C85.067 18.62 85.5603 18.44 86.1603 18.44C86.747 18.44 87.227 18.62 87.6003 18.98C87.987 19.34 88.1803 19.7867 88.1803 20.32C88.1803 20.84 87.987 21.28 87.6003 21.64C87.227 21.9867 86.747 22.16 86.1603 22.16Z" fill="black"/>
</g>
<defs>
<clipPath id="clip0_61_2">
<rect width="89" height="27" fill="white"/>
</clipPath>
</defs>
</svg>
